<svg xmlns="http://www.w3.org/2000/svg" viewBox="0 0 48 48"><defs><style>.cls-1{fill:#f1cece;}.cls-2{fill:#fff;}</style></defs><g id="レイヤー_2" data-name="レイヤー 2"><g id="レイヤー_1-2" data-name="レイヤー 1"><path class="cls-1" d="M24,0a8.14,8.14,0,0,0-7.9,5.27A9.18,9.18,0,0,0,6.73,7a8.2,8.2,0,0,0-1.46,9.37C2.05,17.27,0,20.49,0,24a8.17,8.17,0,0,0,5.27,7.9A8.24,8.24,0,0,0,6.73,41a9.06,9.06,0,0,0,9.37,1.75A8.14,8.14,0,0,0,24,48a8.14,8.14,0,0,0,7.9-5.27A9.06,9.06,0,0,0,41.27,41a8.24,8.24,0,0,0,1.46-9.08A8.17,8.17,0,0,0,48,24c0-3.51-2-6.73-5.27-7.61A8.2,8.2,0,0,0,41.27,7,9.18,9.18,0,0,0,31.9,5.27,8.14,8.14,0,0,0,24,0Z"/><polygon class="cls-2" points="21.76 25.07 31.32 15.51 35.17 19.07 21.76 32.48 13.33 24.05 16.88 20.2 21.76 25.07"/></g></g></svg>